<?xml version="1.0" standalone="no"?>
<!DOCTYPE svg PUBLIC "-//W3C//DTD SVG 20010904//EN"
 "http://www.w3.org/TR/2001/REC-SVG-20010904/DTD/svg10.dtd">
<svg version="1.0" xmlns="http://www.w3.org/2000/svg"
 width="192.000000pt" height="192.000000pt" viewBox="0 0 192.000000 192.000000"
 preserveAspectRatio="xMidYMid meet">

<g transform="translate(0.000000,192.000000) scale(0.100000,-0.100000)"
fill="#000000" stroke="none">
<path d="M830 1883 c-381 -60 -674 -316 -780 -684 -31 -106 -39 -316 -15 -430
68 -335 302 -602 624 -709 224 -74 479 -62 686 34 438 202 654 697 504 1151
-130 390 -494 650 -903 644 -50 -1 -102 -3 -116 -6z m281 -352 c34 -34 39 -44
39 -86 0 -40 -5 -52 -33 -80 -61 -61 -154 -53 -197 17 -51 84 11 188 113 188
32 0 46 -7 78 -39z m109 -123 c0 -7 -15 -71 -34 -143 -121 -465 -335 -794
-571 -880 -27 -10 -54 -22 -59 -27 -6 -4 -21 -8 -35 -7 l-26 0 30 22 c67 49
189 176 233 241 61 92 117 226 147 349 27 109 43 252 29 246 -5 -2 -51 -26
-101 -52 -51 -26 -97 -47 -103 -47 -5 0 -10 11 -10 24 0 20 20 35 141 100 85
45 153 76 171 76 38 0 81 23 108 57 33 42 80 66 80 41z m-5 -390 c-20 -102
-81 -258 -135 -349 -73 -123 -182 -226 -307 -290 -64 -33 -69 -21 -10 20 159
109 330 376 423 660 36 109 39 115 42 79 2 -23 -4 -76 -13 -120z m35 -179
c-56 -219 -155 -368 -302 -454 -67 -40 -91 -38 -38 2 134 101 260 297 324 503
26 83 29 89 33 59 2 -15 -5 -64 -17 -110z"/>
</g>
</svg>
